# xmcd
#
# Track frame offsets:
#	150
#	13752
#	30485
#	47180
#	67215
#	80520
#	94795
#	108815
#	122127
#	134257
#	148592
#
# Disc length: 2143 seconds
#
# Revision: 1
# Processed by: cddbd v1.5.1PL0 Copyright (c) Steve Scherf et al.
# Submitted via: audiograbber 1.82.01
#
DISCID=96085d0b
DTITLE=Tchê Guri - Na Trilha de Um Sonho
DYEAR=1998
DGENRE=Gaúcho
TTITLE0=Baita Baile
TTITLE1=Nosso Amor é Mais Forte
TTITLE2=Foi Assim
TTITLE3=Meu Sonho
TTITLE4=Atenção Interior
TTITLE5=Bom Guri
TTITLE6=Serenata
TTITLE7=Bem Me Quer
TTITLE8=Futebol e Chimarrão
TTITLE9=Eu Não Vivo Sem Você
TTITLE10=Barco do Amor (Farewell,Farewell To Calingford)
EXTD=
EXTT0=
EXTT1=
EXTT2=
EXTT3=
EXTT4=
EXTT5=
EXTT6=
EXTT7=
EXTT8=
EXTT9=
EXTT10=
PLAYORDER=
